<svg width="113" height="32" viewBox="0 0 113 32" fill="none" xmlns="http://www.w3.org/2000/svg">
<g clip-path="url(#clip0_1_7349)">
<path d="M39.2809 15.5127C39.2809 11.3985 37.6465 7.45275 34.7373 4.54356C31.8281 1.63437 27.8824 5.39515e-07 23.7682 0C19.654 -5.39514e-07 15.7083 1.63437 12.7991 4.54356C9.88986 7.45275 8.25549 11.3985 8.25549 15.5127H13.1033C14.7097 15.5127 15.9625 14.1665 16.5509 12.6717C16.9372 11.6903 17.5234 10.7884 18.2836 10.0281C19.7382 8.57352 21.7111 7.75634 23.7682 7.75634C25.8253 7.75634 27.7982 8.57352 29.2528 10.0281C30.7074 11.4827 31.5245 13.4556 31.5245 15.5127H39.2809Z" fill="url(#paint0_linear_1_7349)"/>
<path d="M30.3445 21.4501C31.1241 19.568 31.5254 17.5508 31.5254 15.5137H39.2809C39.2809 24.0811 32.3356 31.0263 23.7682 31.0263C22.4265 31.0263 21.1245 30.856 19.8829 30.5358C20.5854 30.3548 21.2759 30.1243 21.9491 29.8455C23.8312 29.0659 25.5413 27.9233 26.9818 26.4828C28.4223 25.0423 29.565 23.3322 30.3445 21.4501Z" fill="#4392F9"/>
<path d="M0.5 15.5117C0.5 17.5489 0.901247 19.5661 1.68083 21.4482C2.46042 23.3303 3.60307 25.0404 5.04356 26.4809C6.48404 27.9213 8.19415 29.064 10.0762 29.8436C11.9583 30.6232 13.9755 31.0244 16.0127 31.0244C18.0498 31.0244 20.067 30.6232 21.9491 29.8436C23.8312 29.064 25.5413 27.9213 26.9818 26.4809C28.4223 25.0404 29.5649 23.3303 30.3445 21.4482C31.1241 19.5661 31.5254 17.5489 31.5254 15.5117H26.6776C25.0712 15.5117 23.8184 16.8579 23.23 18.3526C23.2133 18.3952 23.1961 18.4376 23.1786 18.48C22.7888 19.421 22.2175 20.2761 21.4972 20.9963C20.777 21.7165 19.9219 22.2879 18.9809 22.6777C18.0399 23.0675 17.0313 23.2681 16.0127 23.2681C14.9941 23.2681 13.9855 23.0675 13.0445 22.6777C12.1034 22.2879 11.2484 21.7165 10.5281 20.9963C9.80787 20.2761 9.23655 19.421 8.84676 18.48C8.45696 17.5389 8.25634 16.5303 8.25634 15.5117H0.5Z" fill="url(#paint1_linear_1_7349)"/>
<path d="M0.501587 15.5127C0.501587 6.94524 7.44683 0 16.0142 0C17.3556 0 18.6572 0.170246 19.8987 0.490323C17.2348 1.17657 14.7774 2.56535 12.7991 4.54357C9.88992 7.45273 8.25557 11.3985 8.25557 15.5127H0.501587Z" fill="#F83758"/>
<path d="M54.4708 21.6751C53.9188 21.6751 53.3818 21.6031 52.8598 21.4591C52.3378 21.3151 51.7768 21.0901 51.1768 20.7841L50.5558 21.5131H49.9978L49.6468 16.9501L50.3938 16.8331C50.7778 18.1711 51.2848 19.1401 51.9148 19.7401C52.5508 20.3401 53.3938 20.6401 54.4438 20.6401C55.1938 20.6401 55.7908 20.4601 56.2348 20.1001C56.6848 19.7401 56.9098 19.2451 56.9098 18.6151C56.9098 18.2371 56.7508 17.8861 56.4328 17.5621C56.1208 17.2321 55.5808 16.8811 54.8128 16.5091L53.3638 15.7891C52.1878 15.2071 51.3238 14.5621 50.7718 13.8541C50.2198 13.1461 49.9438 12.3211 49.9438 11.3791C49.9438 10.6531 50.1448 10.0081 50.5468 9.44412C50.9488 8.87412 51.4918 8.42712 52.1758 8.10312C52.8658 7.77912 53.6458 7.61712 54.5158 7.61712C55.7338 7.61712 56.7778 7.98612 57.6478 8.72412L58.0708 7.77912H58.6648L58.8358 11.7211H58.0528C57.7588 10.7071 57.3268 9.94512 56.7568 9.43512C56.1928 8.92512 55.4758 8.67012 54.6058 8.67012C53.9938 8.67012 53.5168 8.82012 53.1748 9.12012C52.8328 9.42012 52.6618 9.83412 52.6618 10.3621C52.6618 10.7701 52.8148 11.1361 53.1208 11.4601C53.4268 11.7781 53.9578 12.1291 54.7138 12.5131L56.1358 13.2421C57.2638 13.8181 58.0738 14.4511 58.5658 15.1411C59.0638 15.8311 59.3128 16.6591 59.3128 17.6251C59.3128 18.3931 59.0998 19.0831 58.6738 19.6951C58.2478 20.3071 57.6688 20.7901 56.9368 21.1441C56.2048 21.4981 55.3828 21.6751 54.4708 21.6751ZM64.4365 21.7021C63.5125 21.7021 62.8555 21.5011 62.4655 21.0991C62.0755 20.6971 61.8805 20.0521 61.8805 19.1641V12.9631H60.6205L60.5125 12.4141L64.1035 9.67812L64.6525 9.76812V12.0721H67.4065L67.1455 12.9631H64.6525V18.9841C64.6525 19.9381 65.0245 20.4151 65.7685 20.4151C65.9785 20.4151 66.1765 20.3791 66.3625 20.3071C66.5485 20.2351 66.7195 20.1061 66.8755 19.9201L67.2895 20.4961C66.9775 20.8921 66.5725 21.1921 66.0745 21.3961C65.5765 21.6001 65.0305 21.7021 64.4365 21.7021ZM69.9147 26.1481C69.3327 26.1481 68.8347 26.0191 68.4207 25.7611C68.0127 25.5031 67.8087 25.1191 67.8087 24.6091C67.8087 24.2671 67.9227 23.9941 68.1507 23.7901C68.3787 23.5861 68.6487 23.4841 68.9607 23.4841C69.2247 23.4841 69.4587 23.5591 69.6627 23.7091C69.8727 23.8591 70.0227 24.0871 70.1127 24.3931C70.1967 24.6751 70.2777 24.8581 70.3557 24.9421C70.4337 25.0321 70.5537 25.0771 70.7157 25.0771C70.9257 25.0771 71.1327 24.9721 71.3367 24.7621C71.5407 24.5521 71.7087 24.2641 71.8407 23.8981L72.5427 22.0081L68.7447 13.4131C68.6427 13.1851 68.4897 13.0201 68.2857 12.9181C68.0817 12.8101 67.7577 12.7351 67.3137 12.6931V12.0721H73.1277V12.6931C72.7497 12.7231 72.4587 12.7711 72.2547 12.8371C72.0567 12.9031 71.9337 12.9961 71.8857 13.1161C71.8377 13.2361 71.8527 13.3921 71.9307 13.5841L74.0007 18.4621H74.0907L75.8817 14.1061C76.0857 13.6441 76.0857 13.3021 75.8817 13.0801C75.6837 12.8581 75.2637 12.7291 74.6217 12.6931V12.0721H78.9057V12.6931C78.4677 12.7771 78.1317 12.8701 77.8977 12.9721C77.6637 13.0741 77.4807 13.2151 77.3487 13.3951C77.2167 13.5691 77.0847 13.8121 76.9527 14.1241L72.8487 24.0241C72.6807 24.4141 72.5007 24.7441 72.3087 25.0141C72.1167 25.2841 71.9067 25.5061 71.6787 25.6801C71.2407 25.9921 70.6527 26.1481 69.9147 26.1481ZM78.7059 21.5131V20.8831L80.2359 20.5321V8.49012L78.7059 8.01312V7.58112L82.6029 6.72612H82.9809V20.5321L84.4119 20.8831V21.5131H78.7059ZM85.1776 21.5131V20.8831L86.6986 20.5321V13.6561L85.1776 13.1701V12.7471L89.0836 11.8921H89.4616V20.5321L90.8836 20.8831V21.5131H85.1776ZM88.0486 10.5601C87.5566 10.5601 87.1786 10.4071 86.9146 10.1011C86.6506 9.79512 86.5186 9.46212 86.5186 9.10212C86.5186 8.71212 86.6536 8.36712 86.9236 8.06712C87.1996 7.76712 87.5746 7.61712 88.0486 7.61712C88.5346 7.61712 88.9186 7.76712 89.2006 8.06712C89.4886 8.36712 89.6326 8.71212 89.6326 9.10212C89.6326 9.46212 89.4976 9.79512 89.2276 10.1011C88.9636 10.4071 88.5706 10.5601 88.0486 10.5601ZM94.9416 21.7021C94.4856 21.7021 94.0026 21.6661 93.4926 21.5941C92.9826 21.5281 92.5446 21.4351 92.1786 21.3151L92.0616 18.4171H92.8266C92.8806 19.1911 93.0816 19.7851 93.4296 20.1991C93.7836 20.6071 94.2696 20.8111 94.8876 20.8111C95.3496 20.8111 95.7186 20.6941 95.9946 20.4601C96.2706 20.2201 96.4086 19.9081 96.4086 19.5241C96.4086 19.2241 96.3006 18.9571 96.0846 18.7231C95.8746 18.4831 95.5146 18.2281 95.0046 17.9581L94.1406 17.5171C93.4326 17.1451 92.9106 16.7311 92.5746 16.2751C92.2446 15.8191 92.0796 15.2761 92.0796 14.6461C92.0796 13.7401 92.4096 13.0561 93.0696 12.5941C93.7356 12.1261 94.7136 11.8921 96.0036 11.8921C96.4596 11.8921 96.8976 11.9221 97.3176 11.9821C97.7436 12.0361 98.0856 12.1111 98.3436 12.2071V14.6731H97.6596C97.4856 13.4131 96.8916 12.7831 95.8776 12.7831C95.4696 12.7831 95.1396 12.8821 94.8876 13.0801C94.6416 13.2781 94.5186 13.5361 94.5186 13.8541C94.5186 14.1361 94.6296 14.3911 94.8516 14.6191C95.0736 14.8411 95.4576 15.0841 96.0036 15.3481L96.8586 15.7891C97.5246 16.1311 98.0166 16.5331 98.3346 16.9951C98.6526 17.4511 98.8116 18.0031 98.8116 18.6511C98.8116 19.6111 98.4726 20.3611 97.7946 20.9011C97.1166 21.4351 96.1656 21.7021 94.9416 21.7021ZM99.8532 21.5131V20.8831L101.185 20.5321V8.50812L99.8442 8.01312V7.59912L103.57 6.72612H103.957V20.5321L105.199 20.8831V21.5131H99.8532ZM106.18 21.5131V20.8831L107.431 20.5321V15.6541C107.431 14.9221 107.284 14.3821 106.99 14.0341C106.696 13.6801 106.255 13.5031 105.667 13.5031C105.301 13.5031 104.959 13.5751 104.641 13.7191C104.323 13.8631 104.023 14.0611 103.741 14.3131V13.1881C104.203 12.8281 104.749 12.5221 105.379 12.2701C106.015 12.0181 106.666 11.8921 107.332 11.8921C109.24 11.8921 110.194 12.9361 110.194 15.0241V20.5321L111.535 20.8831V21.5131H106.18Z" fill="#4392F9"/>
</g>
<defs>
<linearGradient id="paint0_linear_1_7349" x1="39.2809" y1="7.75634" x2="8.25549" y2="7.75634" gradientUnits="userSpaceOnUse">
<stop stop-color="#CFE2FC"/>
<stop offset="1" stop-color="#4392F9"/>
</linearGradient>
<linearGradient id="paint1_linear_1_7349" x1="0.500001" y1="23.2681" x2="31.5254" y2="23.2681" gradientUnits="userSpaceOnUse">
<stop stop-color="#F8BCC6"/>
<stop offset="1" stop-color="#F83758"/>
</linearGradient>
<clipPath id="clip0_1_7349">
<rect width="111.781" height="31.0263" fill="white" transform="translate(0.5)"/>
</clipPath>
</defs>
</svg>
